<?xml version="1.0" encoding="UTF-8" standalone="no"?>
<!-- Created with Inkscape (http://www.inkscape.org/) -->

<svg
   width="12"
   height="12"
   viewBox="0 0 12 12"
   version="1.1"
   id="svg1"
   inkscape:version="1.3.2 (091e20e, 2023-11-25, custom)"
   sodipodi:docname="tag-P.svg"
   xml:space="preserve"
   xmlns:inkscape="http://www.inkscape.org/namespaces/inkscape"
   xmlns:sodipodi="http://sodipodi.sourceforge.net/DTD/sodipodi-0.dtd"
   xmlns="http://www.w3.org/2000/svg"
   xmlns:svg="http://www.w3.org/2000/svg"><sodipodi:namedview
     id="namedview1"
     pagecolor="#222222"
     bordercolor="#000000"
     borderopacity="0.25"
     inkscape:showpageshadow="2"
     inkscape:pageopacity="0.0"
     inkscape:pagecheckerboard="0"
     inkscape:deskcolor="#d1d1d1"
     inkscape:document-units="mm"
     inkscape:zoom="32"
     inkscape:cx="7.28125"
     inkscape:cy="9.140625"
     inkscape:window-width="1920"
     inkscape:window-height="1009"
     inkscape:window-x="-8"
     inkscape:window-y="-8"
     inkscape:window-maximized="1"
     inkscape:current-layer="layer1" /><defs
     id="defs1" /><g
     inkscape:label="Layer 1"
     inkscape:groupmode="layer"
     id="layer1"><path
       id="path3"
       style="fill:#ffffff;fill-opacity:1;stroke:none;stroke-width:0.5;stroke-linecap:round;stroke-linejoin:round;stroke-dasharray:0.499999, 1.1;stroke-dashoffset:0;stroke-opacity:1"
       d="M 6.5 0.037109375 L 6.5 2.0332031 C 8.3045065 2.2600888 9.7399112 3.6954935 9.9667969 5.5 L 11.976562 5.5 A 6 6 0 0 0 6.5 0.037109375 z M 5.5 0.0390625 A 6 6 0 0 0 0.03515625 5.5 L 2.0332031 5.5 C 2.2600888 3.6954935 3.6954935 2.2600888 5.5 2.0332031 L 5.5 0.0390625 z M 5.5 3.0429688 C 4.2396979 3.2524887 3.2524887 4.2396979 3.0429688 5.5 L 5.5 5.5 L 5.5 3.0429688 z M 6.5 3.0429688 L 6.5 5.5 L 8.9570312 5.5 C 8.7475113 4.2396979 7.7603021 3.2524887 6.5 3.0429688 z M 0.03515625 6.5 A 6 6 0 0 0 5.5 11.960938 L 5.5 9.9667969 C 3.6954935 9.7399112 2.2600888 8.3045065 2.0332031 6.5 L 0.03515625 6.5 z M 3.0429688 6.5 C 3.2524887 7.7603021 4.2396979 8.7475113 5.5 8.9570312 L 5.5 6.5 L 3.0429688 6.5 z M 6.5 6.5 L 6.5 8.9570312 C 7.7603021 8.7475113 8.7475113 7.7603021 8.9570312 6.5 L 6.5 6.5 z M 9.9667969 6.5 C 9.7399112 8.3045065 8.3045065 9.7399112 6.5 9.9667969 L 6.5 11.960938 A 6 6 0 0 0 11.964844 6.5 L 9.9667969 6.5 z " /></g></svg>
